<?xml version="1.0" encoding="UTF-8"?>
<svg width="280" height="80" viewBox="0 0 280 80" fill="none" xmlns="http://www.w3.org/2000/svg">
  <!-- White version for gradient/dark backgrounds -->

  <!-- Book Icon -->
  <g transform="translate(0, 5)">
    <!-- Left page -->
    <path d="M10 15 C10 12 12 10 15 10 L35 10 C37 10 38 11 38 13 L38 57 C38 59 37 60 35 60 L15 60 C12 60 10 58 10 55 L10 15 Z"
          fill="white"/>

    <!-- Right page -->
    <path d="M42 13 C42 11 43 10 45 10 L65 10 C68 10 70 12 70 15 L70 55 C70 58 68 60 65 60 L45 60 C43 60 42 59 42 57 L42 13 Z"
          fill="white"/>

    <!-- Center spine -->
    <rect x="37" y="10" width="6" height="50" fill="white" opacity="0.5"/>
  </g>

  <!-- Readmigo Text -->
  <text x="90" y="52" font-family="SF Pro Display, -apple-system, BlinkMacSystemFont, Inter, sans-serif"
        font-size="36" font-weight="700" fill="white">
    Readmigo
  </text>
</svg>
